<svg width="400" height="220" xmlns="http://www.w3.org/2000/svg">
  <rect width="400" height="220" rx="6" fill="#0D1117"/>
  <text x="10" y="18" font-size="10" fill="#555" font-family="Courier New" letter-spacing="2">// LANGUAGE MATRIX</text>
  
  <text x="10" y="34" font-size="11" fill="#CCC" font-family="Courier New">TypeScript</text>
  <rect x="110" y="20" width="95" height="16" rx="3" fill="#FFCC02" opacity="1.00"/>
  <text x="210" y="34" font-size="10" fill="#FFCC02" font-family="Courier New" opacity="1.00"> 34%</text>
  <text x="10" y="64" font-size="11" fill="#CCC" font-family="Courier New">JavaScript</text>
  <rect x="110" y="50" width="61" height="16" rx="3" fill="#FFCC02" opacity="0.88"/>
  <text x="176" y="64" font-size="10" fill="#FFCC02" font-family="Courier New" opacity="0.88"> 22%</text>
  <text x="10" y="94" font-size="11" fill="#CCC" font-family="Courier New">Python</text>
  <rect x="110" y="80" width="51" height="16" rx="3" fill="#FFCC02" opacity="0.76"/>
  <text x="166" y="94" font-size="10" fill="#FFCC02" font-family="Courier New" opacity="0.76"> 18%</text>
  <text x="10" y="124" font-size="11" fill="#CCC" font-family="Courier New">HTML</text>
  <rect x="110" y="110" width="21" height="16" rx="3" fill="#FFCC02" opacity="0.64"/>
  <text x="136" y="124" font-size="10" fill="#FFCC02" font-family="Courier New" opacity="0.64"> 8%</text>
  <text x="10" y="154" font-size="11" fill="#CCC" font-family="Courier New">MDX</text>
  <rect x="110" y="140" width="17" height="16" rx="3" fill="#FFCC02" opacity="0.52"/>
  <text x="132" y="154" font-size="10" fill="#FFCC02" font-family="Courier New" opacity="0.52"> 6%</text>
  <text x="10" y="184" font-size="11" fill="#CCC" font-family="Courier New">C#</text>
  <rect x="110" y="170" width="10" height="16" rx="3" fill="#FFCC02" opacity="0.40"/>
  <text x="125" y="184" font-size="10" fill="#FFCC02" font-family="Courier New" opacity="0.40"> 4%</text>
  <rect width="400" height="220" rx="6" fill="none" stroke="#FFCC02" stroke-width="0.5" opacity="0.3"/>
</svg>