<svg width="860" height="180" xmlns="http://www.w3.org/2000/svg" viewBox="0 0 860 180">
  <defs>
    <linearGradient id="pulseGrad" x1="0%" y1="0%" x2="0%" y2="100%">
      <stop offset="0%" style="stop-color:#FFCC02;stop-opacity:0.35"/>
      <stop offset="100%" style="stop-color:#FFCC02;stop-opacity:0.02"/>
    </linearGradient>
    <linearGradient id="lineGrad" x1="0%" y1="0%" x2="100%" y2="0%">
      <stop offset="0%" style="stop-color:#F57F17;stop-opacity:0.6"/>
      <stop offset="40%" style="stop-color:#FFCC02;stop-opacity:1"/>
      <stop offset="100%" style="stop-color:#F57F17;stop-opacity:0.6"/>
    </linearGradient>
    <filter id="pulseGlow">
      <feGaussianBlur stdDeviation="3" result="blur"/>
      <feMerge><feMergeNode in="blur"/><feMergeNode in="SourceGraphic"/></feMerge>
    </filter>
    <clipPath id="pulseClip">
      <rect x="20" y="10" width="820" height="110"/>
    </clipPath>
    <style>
      .pulse-label { font: 9px 'Courier New', monospace; fill: #666; letter-spacing: 1.5px; }
      .pulse-value { font: 700 13px 'Courier New', monospace; fill: #FFCC02; }
    </style>
  </defs>
  
  <!-- Outer container -->
  <rect width="860" height="180" rx="6" fill="#0D1117"/>
  <rect width="860" height="180" rx="6" fill="none" stroke="#FFCC02" stroke-width="0.8" opacity="0.25"/>
  
  <!-- Top label -->
  <text x="24" y="22" class="pulse-label">DEVELOPER PULSE — 2026 CONTRIBUTION SIGNAL</text>
  
  <!-- Oscilloscope grid (clipped) -->
  <g clip-path="url(#pulseClip)" transform="translate(20, 30)">
    <line x1="68" y1="0" x2="68" y2="90" stroke="currentColor" stroke-width="0.5" opacity="0.08"/>
  <line x1="137" y1="0" x2="137" y2="90" stroke="currentColor" stroke-width="0.5" opacity="0.08"/>
  <line x1="205" y1="0" x2="205" y2="90" stroke="currentColor" stroke-width="0.5" opacity="0.08"/>
  <line x1="273" y1="0" x2="273" y2="90" stroke="currentColor" stroke-width="0.5" opacity="0.08"/>
  <line x1="342" y1="0" x2="342" y2="90" stroke="currentColor" stroke-width="0.5" opacity="0.08"/>
  <line x1="410" y1="0" x2="410" y2="90" stroke="currentColor" stroke-width="0.5" opacity="0.08"/>
  <line x1="478" y1="0" x2="478" y2="90" stroke="currentColor" stroke-width="0.5" opacity="0.08"/>
  <line x1="547" y1="0" x2="547" y2="90" stroke="currentColor" stroke-width="0.5" opacity="0.08"/>
  <line x1="615" y1="0" x2="615" y2="90" stroke="currentColor" stroke-width="0.5" opacity="0.08"/>
  <line x1="683" y1="0" x2="683" y2="90" stroke="currentColor" stroke-width="0.5" opacity="0.08"/>
  <line x1="752" y1="0" x2="752" y2="90" stroke="currentColor" stroke-width="0.5" opacity="0.08"/>
  <line x1="0" y1="22" x2="820" y2="22" stroke="currentColor" stroke-width="0.5" opacity="0.08"/>
  <line x1="0" y1="45" x2="820" y2="45" stroke="currentColor" stroke-width="0.5" opacity="0.08"/>
  <line x1="0" y1="68" x2="820" y2="68" stroke="currentColor" stroke-width="0.5" opacity="0.08"/>
    
    <!-- Filled waveform -->
    <path d="M 0.0,45.0 C 6.2,45.0 9.3,45.0 15.5,45.0 C 21.7,45.0 24.8,45.0 30.9,45.0 C 37.1,45.0 40.2,45.0 46.4,45.0 C 52.6,45.0 55.7,45.0 61.9,45.0 C 68.1,45.0 71.2,42.7 77.4,42.7 C 83.5,42.7 86.6,44.7 92.8,44.7 C 99.0,44.7 102.1,45.0 108.3,45.0 C 114.5,45.0 117.6,45.0 123.8,45.0 C 130.0,45.0 133.1,45.0 139.2,45.0 C 145.4,45.0 148.5,45.0 154.7,45.0 C 160.9,45.0 164.0,45.0 170.2,45.0 C 176.4,45.0 179.5,45.0 185.7,45.0 C 191.8,45.0 194.9,45.0 201.1,45.0 C 207.3,45.0 210.4,45.0 216.6,45.0 C 222.8,45.0 225.9,42.6 232.1,42.6 C 238.3,42.6 241.4,45.0 247.5,45.0 C 253.7,45.0 256.8,43.2 263.0,43.2 C 269.2,43.2 272.3,36.4 278.5,36.4 C 284.7,36.4 287.8,45.0 294.0,45.0 C 300.2,45.0 303.2,45.0 309.4,45.0 C 315.6,45.0 318.7,42.4 324.9,42.4 C 331.1,42.4 334.2,43.0 340.4,43.0 C 346.6,43.0 349.7,43.4 355.8,43.4 C 362.0,43.4 365.1,43.4 371.3,43.4 C 377.5,43.4 380.6,44.7 386.8,44.7 C 393.0,44.7 396.1,44.4 402.3,44.4 C 408.5,44.4 411.5,42.0 417.7,42.0 C 423.9,42.0 427.0,42.9 433.2,42.9 C 439.4,42.9 442.5,42.3 448.7,42.3 C 454.9,42.3 458.0,33.6 464.2,33.6 C 470.3,33.6 473.4,29.7 479.6,29.7 C 485.8,29.7 488.9,39.0 495.1,39.0 C 501.3,39.0 504.4,43.2 510.6,43.2 C 516.8,43.2 519.8,42.2 526.0,42.2 C 532.2,42.2 535.3,37.6 541.5,37.6 C 547.7,37.6 550.8,25.4 557.0,25.4 C 563.2,25.4 566.3,36.1 572.5,36.1 C 578.6,36.1 581.7,41.6 587.9,41.6 C 594.1,41.6 597.2,38.3 603.4,38.3 C 609.6,38.3 612.7,20.5 618.9,20.5 C 625.1,20.5 628.2,37.8 634.3,37.8 C 640.5,37.8 643.6,41.1 649.8,41.1 C 656.0,41.1 659.1,43.3 665.3,43.3 C 671.5,43.3 674.6,7.2 680.8,7.2 C 686.9,7.2 690.0,26.8 696.2,26.8 C 702.4,26.8 705.5,45.0 711.7,45.0 C 717.9,45.0 721.0,44.5 727.2,44.5 C 733.4,44.5 736.5,44.0 742.6,44.0 C 748.8,44.0 751.9,43.4 758.1,43.4 C 764.3,43.4 767.4,43.4 773.6,43.4 C 779.8,43.4 782.9,41.9 789.1,41.9 C 795.2,41.9 798.3,37.6 804.5,37.6 L 804.5,90 L 0.0,90 Z" fill="url(#pulseGrad)" clip-path="url(#pulseClip)"/>
    
    <!-- Glowing line -->
    <path d="M 0.0,45.0 C 6.2,45.0 9.3,45.0 15.5,45.0 C 21.7,45.0 24.8,45.0 30.9,45.0 C 37.1,45.0 40.2,45.0 46.4,45.0 C 52.6,45.0 55.7,45.0 61.9,45.0 C 68.1,45.0 71.2,42.7 77.4,42.7 C 83.5,42.7 86.6,44.7 92.8,44.7 C 99.0,44.7 102.1,45.0 108.3,45.0 C 114.5,45.0 117.6,45.0 123.8,45.0 C 130.0,45.0 133.1,45.0 139.2,45.0 C 145.4,45.0 148.5,45.0 154.7,45.0 C 160.9,45.0 164.0,45.0 170.2,45.0 C 176.4,45.0 179.5,45.0 185.7,45.0 C 191.8,45.0 194.9,45.0 201.1,45.0 C 207.3,45.0 210.4,45.0 216.6,45.0 C 222.8,45.0 225.9,42.6 232.1,42.6 C 238.3,42.6 241.4,45.0 247.5,45.0 C 253.7,45.0 256.8,43.2 263.0,43.2 C 269.2,43.2 272.3,36.4 278.5,36.4 C 284.7,36.4 287.8,45.0 294.0,45.0 C 300.2,45.0 303.2,45.0 309.4,45.0 C 315.6,45.0 318.7,42.4 324.9,42.4 C 331.1,42.4 334.2,43.0 340.4,43.0 C 346.6,43.0 349.7,43.4 355.8,43.4 C 362.0,43.4 365.1,43.4 371.3,43.4 C 377.5,43.4 380.6,44.7 386.8,44.7 C 393.0,44.7 396.1,44.4 402.3,44.4 C 408.5,44.4 411.5,42.0 417.7,42.0 C 423.9,42.0 427.0,42.9 433.2,42.9 C 439.4,42.9 442.5,42.3 448.7,42.3 C 454.9,42.3 458.0,33.6 464.2,33.6 C 470.3,33.6 473.4,29.7 479.6,29.7 C 485.8,29.7 488.9,39.0 495.1,39.0 C 501.3,39.0 504.4,43.2 510.6,43.2 C 516.8,43.2 519.8,42.2 526.0,42.2 C 532.2,42.2 535.3,37.6 541.5,37.6 C 547.7,37.6 550.8,25.4 557.0,25.4 C 563.2,25.4 566.3,36.1 572.5,36.1 C 578.6,36.1 581.7,41.6 587.9,41.6 C 594.1,41.6 597.2,38.3 603.4,38.3 C 609.6,38.3 612.7,20.5 618.9,20.5 C 625.1,20.5 628.2,37.8 634.3,37.8 C 640.5,37.8 643.6,41.1 649.8,41.1 C 656.0,41.1 659.1,43.3 665.3,43.3 C 671.5,43.3 674.6,7.2 680.8,7.2 C 686.9,7.2 690.0,26.8 696.2,26.8 C 702.4,26.8 705.5,45.0 711.7,45.0 C 717.9,45.0 721.0,44.5 727.2,44.5 C 733.4,44.5 736.5,44.0 742.6,44.0 C 748.8,44.0 751.9,43.4 758.1,43.4 C 764.3,43.4 767.4,43.4 773.6,43.4 C 779.8,43.4 782.9,41.9 789.1,41.9 C 795.2,41.9 798.3,37.6 804.5,37.6" fill="none" stroke="url(#lineGrad)" stroke-width="2.5" 
          filter="url(#pulseGlow)" clip-path="url(#pulseClip)"/>
    
    <!-- Secondary faded line (echo effect) -->
    <path d="M 0.0,45.0 C 6.2,45.0 9.3,45.0 15.5,45.0 C 21.7,45.0 24.8,45.0 30.9,45.0 C 37.1,45.0 40.2,45.0 46.4,45.0 C 52.6,45.0 55.7,45.0 61.9,45.0 C 68.1,45.0 71.2,42.7 77.4,42.7 C 83.5,42.7 86.6,44.7 92.8,44.7 C 99.0,44.7 102.1,45.0 108.3,45.0 C 114.5,45.0 117.6,45.0 123.8,45.0 C 130.0,45.0 133.1,45.0 139.2,45.0 C 145.4,45.0 148.5,45.0 154.7,45.0 C 160.9,45.0 164.0,45.0 170.2,45.0 C 176.4,45.0 179.5,45.0 185.7,45.0 C 191.8,45.0 194.9,45.0 201.1,45.0 C 207.3,45.0 210.4,45.0 216.6,45.0 C 222.8,45.0 225.9,42.6 232.1,42.6 C 238.3,42.6 241.4,45.0 247.5,45.0 C 253.7,45.0 256.8,43.2 263.0,43.2 C 269.2,43.2 272.3,36.4 278.5,36.4 C 284.7,36.4 287.8,45.0 294.0,45.0 C 300.2,45.0 303.2,45.0 309.4,45.0 C 315.6,45.0 318.7,42.4 324.9,42.4 C 331.1,42.4 334.2,43.0 340.4,43.0 C 346.6,43.0 349.7,43.4 355.8,43.4 C 362.0,43.4 365.1,43.4 371.3,43.4 C 377.5,43.4 380.6,44.7 386.8,44.7 C 393.0,44.7 396.1,44.4 402.3,44.4 C 408.5,44.4 411.5,42.0 417.7,42.0 C 423.9,42.0 427.0,42.9 433.2,42.9 C 439.4,42.9 442.5,42.3 448.7,42.3 C 454.9,42.3 458.0,33.6 464.2,33.6 C 470.3,33.6 473.4,29.7 479.6,29.7 C 485.8,29.7 488.9,39.0 495.1,39.0 C 501.3,39.0 504.4,43.2 510.6,43.2 C 516.8,43.2 519.8,42.2 526.0,42.2 C 532.2,42.2 535.3,37.6 541.5,37.6 C 547.7,37.6 550.8,25.4 557.0,25.4 C 563.2,25.4 566.3,36.1 572.5,36.1 C 578.6,36.1 581.7,41.6 587.9,41.6 C 594.1,41.6 597.2,38.3 603.4,38.3 C 609.6,38.3 612.7,20.5 618.9,20.5 C 625.1,20.5 628.2,37.8 634.3,37.8 C 640.5,37.8 643.6,41.1 649.8,41.1 C 656.0,41.1 659.1,43.3 665.3,43.3 C 671.5,43.3 674.6,7.2 680.8,7.2 C 686.9,7.2 690.0,26.8 696.2,26.8 C 702.4,26.8 705.5,45.0 711.7,45.0 C 717.9,45.0 721.0,44.5 727.2,44.5 C 733.4,44.5 736.5,44.0 742.6,44.0 C 748.8,44.0 751.9,43.4 758.1,43.4 C 764.3,43.4 767.4,43.4 773.6,43.4 C 779.8,43.4 782.9,41.9 789.1,41.9 C 795.2,41.9 798.3,37.6 804.5,37.6" fill="none" stroke="#FFCC02" stroke-width="1" 
          opacity="0.15" transform="translate(0, 4)" clip-path="url(#pulseClip)"/>
  </g>
  
  <!-- Live indicator dot -->
  <circle cx="830" cy="22" r="4" fill="#FFCC02">
    <animate attributeName="opacity" values="1;0.3;1" dur="1.5s" repeatCount="indefinite"/>
  </circle>
  <text x="838" y="26" class="pulse-label" text-anchor="end">LIVE</text>
  
  <!-- Stats bar at bottom -->
  <line x1="20" y1="158" x2="840" y2="158" 
        stroke="#FFCC02" stroke-width="0.5" opacity="0.2"/>
  
  <text x="30" y="174" class="pulse-label">TOTAL CONTRIBUTIONS</text>
  <text x="30" y="190" class="pulse-value">800</text>
  
  <text x="390" y="174" class="pulse-label">CURRENT STREAK</text>
  <text x="390" y="190" class="pulse-value">—</text>
  
  <text x="830" y="174" text-anchor="end" class="pulse-label">SIGNAL</text>
  <text x="830" y="190" text-anchor="end" class="pulse-value">ACTIVE ◈</text>
</svg>